<?xml version="1.0" encoding="UTF-8"?>
<svg id="Layer_1" data-name="Layer 1" xmlns="http://www.w3.org/2000/svg" viewBox="0 0 999 225.45">
  <path d="M86.04,165.11c-13.05,0-24.24,7.91-29.05,19.2V0H0v224.61h119.85v-59.5h-33.81,0Z" fill="#fff"/>
  <path d="M965.19,165.11c-13.05,0-24.24,7.91-29.05,19.2V0h-56.99v224.61h119.85v-59.5h-33.81Z" fill="#fff"/>
  <path d="M181.26,0c-22.81,0-41.3,18.49-41.3,41.3v183.3h18.2c22.81,0,41.3-18.49,41.3-41.3V0h-18.2Z" fill="#fff"/>
  <path d="M834.97,0c-22.81,0-41.3,18.49-41.3,41.3v183.3h18.2c22.81,0,41.3-18.49,41.3-41.3V0h-18.2Z" fill="#fff"/>
  <path d="M749.77,0h-142v13.59c0,17.03,14.32,30.83,32,30.83h25.67v180.19h17.95c22.49,0,40.72-18.49,40.72-41.3V44.43h57.66v-13.59C781.77,13.81,767.45,0,749.77,0h0Z" fill="#fff"/>
  <path d="M315.72,107.29h-19.04v45.26h13.41v11.46c0,8.48-6.88,15.36-15.36,15.36h-7c-7.82,0-14.26-5.85-15.22-13.41h-.14V57.27c0-6.62,4.19-12.24,10.06-14.4,0,0,3.89-.96,5.3-.96h7c8.48,0,15.36,6.88,15.36,15.36v19.84h46.09v-35.8C356.18,18.5,337.69.01,314.88.01h-50.65c-22.81,0-41.3,18.49-41.3,41.3v142.84c0,22.81,18.49,41.3,41.3,41.3h10.87s33.31-8.38,37.5-29.33v29.33h3.12c22.81,0,41.3-18.49,41.3-41.3v-35.56c0-22.81-18.49-41.3-41.3-41.3h0Z" fill="#fff"/>
  <path d="M475.2,41.91c22.68,0,41.07-18.39,41.07-41.07v-.84h-93.63c-23.27,0-42.14,18.87-42.14,42.14v182.47h135.77v-41.9h-83.81v-39.39h42.74c22.68,0,41.07-18.39,41.07-41.07h-83.81v-60.34h42.74Z" fill="#fff"/>
</svg>